<svg width="72" height="72" viewBox="0 0 72 72" fill="none" xmlns="http://www.w3.org/2000/svg">
<g filter="url(#filter0_d_1_73)">
<rect x="4" width="64" height="64" fill="#E738CE"/>
<path d="M37.1613 21.5625H25.5484C24.6932 21.5625 24 22.2621 24 23.125V41.875C24 42.7379 24.6932 43.4375 25.5484 43.4375H37.1613C38.0164 43.4375 38.7097 42.7379 38.7097 41.875V23.125C38.7097 22.2621 38.0164 21.5625 37.1613 21.5625Z" fill="white"/>
<path d="M46.4516 21.5625H42.5806C41.7255 21.5625 41.0323 22.2621 41.0323 23.125V41.875C41.0323 42.7379 41.7255 43.4375 42.5806 43.4375H46.4516C47.3068 43.4375 48 42.7379 48 41.875V23.125C48 22.2621 47.3068 21.5625 46.4516 21.5625Z" fill="white"/>
</g>
<defs>
<filter id="filter0_d_1_73" x="0" y="0" width="72" height="72" filterUnits="userSpaceOnUse" color-interpolation-filters="sRGB">
<feFlood flood-opacity="0" result="BackgroundImageFix"/>
<feColorMatrix in="SourceAlpha" type="matrix" values="0 0 0 0 0 0 0 0 0 0 0 0 0 0 0 0 0 0 127 0" result="hardAlpha"/>
<feOffset dy="4"/>
<feGaussianBlur stdDeviation="2"/>
<feComposite in2="hardAlpha" operator="out"/>
<feColorMatrix type="matrix" values="0 0 0 0 0 0 0 0 0 0 0 0 0 0 0 0 0 0 0.25 0"/>
<feBlend mode="normal" in2="BackgroundImageFix" result="effect1_dropShadow_1_73"/>
<feBlend mode="normal" in="SourceGraphic" in2="effect1_dropShadow_1_73" result="shape"/>
</filter>
</defs>
</svg>
